<svg id="Group_245" data-name="Group 245" xmlns="http://www.w3.org/2000/svg" width="218.755" height="72.808" viewBox="0 0 218.755 72.808">
  <path id="Path_139" data-name="Path 139" d="M315.4,998.793a9.755,9.755,0,0,1-9.668,9.84H106.311a9.757,9.757,0,0,1-9.67-9.84V945.664a9.757,9.757,0,0,1,9.67-9.839H305.728a9.755,9.755,0,0,1,9.668,9.839Z" transform="translate(-96.641 -935.825)" fill="#fff"/>
  <g id="Group_241" data-name="Group 241" transform="translate(16.206 11.531)">
    <path id="Path_140" data-name="Path 140" d="M174.749,1014.947a36.065,36.065,0,0,1-3.259,6.085c-2.117,3.223-5.1,7.236-8.8,7.27-3.286.03-4.129-2.138-8.587-2.114s-5.389,2.152-8.675,2.122c-3.7-.034-6.524-3.658-8.641-6.88-5.92-9.011-6.538-19.586-2.887-25.207,2.595-4,6.687-6.334,10.535-6.334,3.918,0,6.382,2.149,9.621,2.149,3.142,0,5.058-2.152,9.587-2.152a12.784,12.784,0,0,1,9.638,5.089C164.815,999.615,166.19,1011.713,174.749,1014.947Z" transform="translate(-131.637 -978.14)" fill="#1c1c1c"/>
    <g id="Group_240" data-name="Group 240" transform="translate(20.722)">
      <path id="Path_141" data-name="Path 141" d="M188.059,970.5a11,11,0,0,0,2.442-8.145,11.883,11.883,0,0,0-7.67,4.126c-1.666,2.025-3.042,5.028-2.506,7.945A10.029,10.029,0,0,0,188.059,970.5Z" transform="translate(-180.207 -962.355)" fill="#1c1c1c"/>
    </g>
  </g>
  <g id="Group_244" data-name="Group 244" transform="translate(75.253 11.531)">
    <g id="Group_242" data-name="Group 242" transform="translate(0 20.781)">
      <path id="Path_142" data-name="Path 142" d="M262.48,1004.42l-7.4,21.777h3.388l2.209-6.687h7.163l2.271,6.687h3.482l-7.43-21.777Zm1.755,3.58c.25.972.519,1.981.866,3.073l1.994,5.774h-5.674l1.966-5.812C263.686,1010.093,263.971,1009.076,264.236,1008Z" transform="translate(-255.082 -1004.073)" fill="#1c1c1c"/>
      <path id="Path_143" data-name="Path 143" d="M316.4,1019.586a6.165,6.165,0,0,0-5.238,2.513l-.131-2.166h-3.014l.018.277c.089,1.349.126,2.835.126,4.967v16.786h3.3v-7.833a5.786,5.786,0,0,0,4.5,1.935,6.794,6.794,0,0,0,4.992-2.123,9,9,0,0,0,2.2-6.337,8.766,8.766,0,0,0-1.914-5.787A6.269,6.269,0,0,0,316.4,1019.586Zm-.821,2.728c2.937,0,4.252,2.721,4.252,5.417,0,3.478-1.677,5.637-4.377,5.637a4,4,0,0,1-3.882-3.058,4.207,4.207,0,0,1-.117-1.066v-2.65a4.969,4.969,0,0,1,.1-.813c.016-.09.034-.18.047-.267A4.172,4.172,0,0,1,315.576,1022.314Z" transform="translate(-288.311 -1013.594)" fill="#1c1c1c"/>
      <path id="Path_144" data-name="Path 144" d="M361.978,1019.586a6.168,6.168,0,0,0-5.238,2.513l-.131-2.166H353.6l.017.277c.089,1.351.127,2.835.127,4.967v16.786h3.3v-7.833a5.784,5.784,0,0,0,4.5,1.935,6.8,6.8,0,0,0,4.995-2.123,9.014,9.014,0,0,0,2.2-6.337,8.766,8.766,0,0,0-1.916-5.787A6.266,6.266,0,0,0,361.978,1019.586Zm-.82,2.728c2.936,0,4.251,2.721,4.251,5.417,0,3.478-1.678,5.637-4.376,5.637a4,4,0,0,1-3.882-3.058,4.209,4.209,0,0,1-.116-1.066v-2.65a4.894,4.894,0,0,1,.105-.816c.016-.089.033-.178.048-.265A4.17,4.17,0,0,1,361.158,1022.314Z" transform="translate(-316.926 -1013.594)" fill="#1c1c1c"/>
      <path id="Path_145" data-name="Path 145" d="M419.989,1013.063c-3.075-1.191-4.06-2.127-4.06-3.857,0-1.457,1.158-2.927,3.745-2.927a7.486,7.486,0,0,1,3.868.971l.279.172.93-2.75-.184-.108a9.55,9.55,0,0,0-4.8-1.076c-4.2,0-7.136,2.48-7.136,6.031,0,2.864,1.838,4.865,5.783,6.3,2.8,1.045,3.837,2.116,3.837,3.952,0,2.077-1.606,3.366-4.188,3.366a9.018,9.018,0,0,1-4.749-1.347l-.286-.183-.884,2.813.163.107a11.283,11.283,0,0,0,5.568,1.432c5.663,0,7.671-3.453,7.671-6.409C425.547,1016.5,423.937,1014.621,419.989,1013.063Z" transform="translate(-353.681 -1003.488)" fill="#1c1c1c"/>
      <path id="Path_146" data-name="Path 146" d="M454.642,1010.439l-3.232,1.014v2.737h-2.365v2.633h2.365v8.066a6.165,6.165,0,0,0,1.141,4.18,4.225,4.225,0,0,0,3.188,1.251,7.771,7.771,0,0,0,2.547-.393l.185-.066-.158-2.638-.316.1a4.958,4.958,0,0,1-1.533.177c-1.277,0-1.822-.808-1.822-2.7v-7.972h3.975v-2.633h-3.975Z" transform="translate(-376.845 -1007.852)" fill="#1c1c1c"/>
      <path id="Path_147" data-name="Path 147" d="M483.491,1019.586c-4.61,0-7.829,3.441-7.829,8.365,0,4.777,3.115,8.113,7.577,8.113h.03c3.772,0,7.829-2.627,7.829-8.4a8.325,8.325,0,0,0-2.1-5.828A7.332,7.332,0,0,0,483.491,1019.586Zm-.1,2.6c2.964,0,4.314,2.89,4.314,5.576,0,3.3-1.841,5.7-4.376,5.7H483.3c-2.5,0-4.312-2.357-4.312-5.6C478.989,1025.036,480.352,1022.187,483.4,1022.187Z" transform="translate(-393.554 -1013.594)" fill="#1c1c1c"/>
      <path id="Path_148" data-name="Path 148" d="M530.413,1019.739l-.2-.05a3.164,3.164,0,0,0-.819-.1,4.7,4.7,0,0,0-4.131,2.653l-.1-2.306h-2.957l.019.277c.088,1.3.124,2.768.124,4.745l-.03,10.763h3.294v-8.4a8.51,8.51,0,0,1,.091-1.277c.372-2.017,1.733-3.32,3.467-3.32a8.384,8.384,0,0,1,.884.055l.353.036Z" transform="translate(-422.776 -1013.594)" fill="#1c1c1c"/>
      <path id="Path_149" data-name="Path 149" d="M551.581,1019.5c-4.386,0-7.45,3.5-7.45,8.523,0,4.833,3.047,7.956,7.765,7.956a12.632,12.632,0,0,0,5.216-1l.2-.089-.633-2.455-.275.111a10.213,10.213,0,0,1-4.128.738,4.58,4.58,0,0,1-4.935-4.777l10.635.032.043-.21a7.327,7.327,0,0,0,.1-1.375C558.117,1023.516,556.405,1019.5,551.581,1019.5Zm-.219,2.506a3.251,3.251,0,0,1,2.419.923,4.69,4.69,0,0,1,1.135,3.067H547.4C547.706,1024.1,548.9,1022.009,551.361,1022.009Z" transform="translate(-436.537 -1013.541)" fill="#1c1c1c"/>
    </g>
    <g id="Group_243" data-name="Group 243" transform="translate(0.289 0)">
      <path id="Path_150" data-name="Path 150" d="M255.082,964.095a23.977,23.977,0,0,1,3.16-.214,7.052,7.052,0,0,1,4.639,1.269,4.51,4.51,0,0,1,1.631,3.715,5.217,5.217,0,0,1-1.648,4.006,7.645,7.645,0,0,1-5.081,1.484,22.821,22.821,0,0,1-2.7-.123Zm1.5,9.129a10.564,10.564,0,0,0,1.5.062c3.16.014,4.876-1.591,4.876-4.374.017-2.462-1.512-3.976-4.638-3.976a9.389,9.389,0,0,0-1.733.137Z" transform="translate(-255.082 -963.407)" fill="#8e8e8e"/>
      <path id="Path_151" data-name="Path 151" d="M288.006,979.178a3.715,3.715,0,0,1-3.942-3.807,3.818,3.818,0,0,1,4.078-3.93,3.685,3.685,0,0,1,3.959,3.792,3.832,3.832,0,0,1-4.077,3.945Zm.051-1.01a2.634,2.634,0,0,0,2.5-2.89,2.514,2.514,0,1,0-2.515,2.89Z" transform="translate(-273.276 -968.152)" fill="#8e8e8e"/>
      <path id="Path_152" data-name="Path 152" d="M309.43,971.891l1.1,3.747c.22.826.442,1.605.594,2.37h.051c.187-.75.459-1.544.731-2.355l1.342-3.762h1.258l1.275,3.7c.305.872.543,1.667.73,2.417h.051a20.459,20.459,0,0,1,.629-2.4l1.172-3.716h1.479l-2.651,7.4h-1.359l-1.257-3.532a24.255,24.255,0,0,1-.732-2.447h-.033a20.332,20.332,0,0,1-.748,2.462l-1.325,3.517h-1.359l-2.481-7.4Z" transform="translate(-288.24 -968.435)" fill="#8e8e8e"/>
      <path id="Path_153" data-name="Path 153" d="M343.9,973.611c0-.78-.017-1.391-.069-2h1.326l.084,1.209h.034a3.114,3.114,0,0,1,2.718-1.377,2.814,2.814,0,0,1,2.905,3.15v4.419H349.4v-4.266c0-1.193-.494-2.2-1.9-2.2a2.133,2.133,0,0,0-2,1.376,1.809,1.809,0,0,0-.1.627v4.465H343.9Z" transform="translate(-310.794 -968.152)" fill="#8e8e8e"/>
      <path id="Path_154" data-name="Path 154" d="M369.346,962.607h1.5v10.857h-1.5Z" transform="translate(-326.814 -962.607)" fill="#8e8e8e"/>
      <path id="Path_155" data-name="Path 155" d="M382.374,979.178a3.715,3.715,0,0,1-3.942-3.807,3.817,3.817,0,0,1,4.078-3.93,3.685,3.685,0,0,1,3.958,3.792,3.832,3.832,0,0,1-4.078,3.945Zm.05-1.01a2.634,2.634,0,0,0,2.5-2.89,2.514,2.514,0,1,0-2.515,2.89Z" transform="translate(-332.518 -968.152)" fill="#8e8e8e"/>
      <path id="Path_156" data-name="Path 156" d="M409.8,977.236a11.156,11.156,0,0,0,.119,1.773h-1.343l-.136-.932h-.05a3.162,3.162,0,0,1-2.515,1.1,2.242,2.242,0,0,1-2.515-2.126c0-1.789,1.767-2.768,4.944-2.753v-.153c0-.612-.186-1.728-1.869-1.713a4.294,4.294,0,0,0-2.158.55l-.34-.9a5.792,5.792,0,0,1,2.719-.642c2.532,0,3.143,1.544,3.143,3.027Zm-1.461-2c-1.631-.031-3.483.229-3.483,1.667a1.25,1.25,0,0,0,1.393,1.285,2.073,2.073,0,0,0,2.021-1.239,1.231,1.231,0,0,0,.069-.428Z" transform="translate(-348.165 -968.152)" fill="#8e8e8e"/>
      <path id="Path_157" data-name="Path 157" d="M433.193,962.607v8.945c0,.657.018,1.407.068,1.911h-1.342l-.068-1.284h-.034a3.077,3.077,0,0,1-2.786,1.453,3.529,3.529,0,0,1-3.535-3.762,3.69,3.69,0,0,1,3.687-3.976,2.828,2.828,0,0,1,2.482,1.117h.034v-4.4Zm-1.495,6.468a2.239,2.239,0,0,0-.068-.58,2.162,2.162,0,0,0-2.157-1.545c-1.547,0-2.464,1.223-2.464,2.845a2.455,2.455,0,0,0,2.43,2.752,2.225,2.225,0,0,0,2.192-1.606,2.1,2.1,0,0,0,.068-.581Z" transform="translate(-362.063 -962.607)" fill="#8e8e8e"/>
      <path id="Path_158" data-name="Path 158" d="M464.862,979.178a3.715,3.715,0,0,1-3.942-3.807A3.818,3.818,0,0,1,465,971.44a3.685,3.685,0,0,1,3.959,3.792,3.832,3.832,0,0,1-4.077,3.945Zm.051-1.01a2.633,2.633,0,0,0,2.5-2.89,2.514,2.514,0,1,0-2.514,2.89Z" transform="translate(-384.302 -968.152)" fill="#8e8e8e"/>
      <path id="Path_159" data-name="Path 159" d="M487.467,973.611c0-.78-.018-1.391-.069-2h1.326l.086,1.209h.034a3.114,3.114,0,0,1,2.718-1.377,2.815,2.815,0,0,1,2.906,3.15v4.419h-1.5v-4.266c0-1.193-.492-2.2-1.9-2.2a2.135,2.135,0,0,0-2.005,1.376,1.822,1.822,0,0,0-.1.627v4.465h-1.495Z" transform="translate(-400.924 -968.152)" fill="#8e8e8e"/>
      <path id="Path_160" data-name="Path 160" d="M522.82,967.127V968.9h2.14v1.024h-2.14v3.991c0,.917.289,1.438,1.121,1.438a3.073,3.073,0,0,0,.867-.092l.068,1.024a4.492,4.492,0,0,1-1.325.184,2.265,2.265,0,0,1-1.614-.566,2.687,2.687,0,0,1-.577-1.943v-4.037h-1.275V968.9h1.275v-1.361Z" transform="translate(-421.443 -965.445)" fill="#8e8e8e"/>
      <path id="Path_161" data-name="Path 161" d="M537.705,962.607H539.2v4.618h.035a2.539,2.539,0,0,1,1.071-.948,3.155,3.155,0,0,1,1.529-.382,2.813,2.813,0,0,1,2.871,3.165v4.4h-1.495v-4.251c0-1.208-.493-2.2-1.9-2.2a2.149,2.149,0,0,0-2.005,1.346,1.48,1.48,0,0,0-.1.642v4.465h-1.495Z" transform="translate(-432.505 -962.607)" fill="#8e8e8e"/>
      <path id="Path_162" data-name="Path 162" d="M562.887,975.511a2.507,2.507,0,0,0,2.8,2.57,6.241,6.241,0,0,0,2.278-.368l.272.948a7.357,7.357,0,0,1-2.753.474c-2.516,0-4.045-1.514-4.045-3.731a3.768,3.768,0,0,1,3.874-4.007,3.239,3.239,0,0,1,3.381,3.487,3.1,3.1,0,0,1-.05.642Zm4.368-.963a1.986,1.986,0,0,0-2.057-2.187,2.327,2.327,0,0,0-2.293,2.187Z" transform="translate(-447.407 -968.126)" fill="#8e8e8e"/>
    </g>
  </g>
</svg>
