<svg xmlns="http://www.w3.org/2000/svg" width="18.521" height="19.59" viewBox="0 0 18.521 19.59">
  <g id="handyman-worker" transform="translate(3 0.001)">
    <path id="Path_5" data-name="Path 5" d="M13.476,4.383l0,.018a19.012,19.012,0,0,0-4.009-.317A21.506,21.506,0,0,0,4.9,4.59l0-.007c-1.182-6.541,10.135-5.607,8.573-.2ZM4.4,16.785a.488.488,0,0,1,0,.964.488.488,0,0,1,0-.964Zm9.884,0a.488.488,0,1,1-.41.482.451.451,0,0,1,.41-.482ZM6.9,11.462a4.655,4.655,0,0,1-2.109.93l1,3.337h7.274l.788-3.314A4.072,4.072,0,0,1,12.19,12a2.22,2.22,0,0,1-.555-.631l-.029-.551a3.179,3.179,0,0,0,.452-.544A4.305,4.305,0,0,0,12.622,8.8c.029-.122.057-.245.092-.367.283-.034.532-.408.683-.872a3.676,3.676,0,0,0,.163-.81,1.424,1.424,0,0,0-.081-.695.367.367,0,0,0-.3-.237,3.243,3.243,0,0,1,.113-.73A18.762,18.762,0,0,0,9.467,4.8,21.018,21.018,0,0,0,5.03,5.29l.128.721a1.573,1.573,0,0,0-.092.81,3.13,3.13,0,0,0,.226.913c.151.347.365.592.613.592.023.082.053.17.075.259A5.248,5.248,0,0,0,6.7,10.321a2.948,2.948,0,0,0,.342.408l-.029.618c-.036.041-.072.078-.11.115ZM3.632,12.646c-1.293.346-2.427,1.093-3.066,4.391L0,19.589H3.075V16.433a.66.66,0,0,1,.6-.7h.639a13.5,13.5,0,0,0-.68-3.083Zm11.973,6.943h2.915l-.6-2.741c-.558-2.952-1.687-3.863-2.861-4.212a16.973,16.973,0,0,0-.5,3.092h.451a.66.66,0,0,1,.6.7v3.158ZM8.038,2.363h2.445a.114.114,0,0,1,.1.122v.663a.114.114,0,0,1-.1.122H8.038a.114.114,0,0,1-.1-.122V2.485a.114.114,0,0,1,.1-.122Zm3.2,8.672a2.558,2.558,0,0,1-1.9.769,2.976,2.976,0,0,1-1.91-.831c-.048,3.229,3.875,3.42,3.807.062Zm.98-2.343c.035-.144.075-.292.122-.47a.135.135,0,0,1,.145-.115c.191.041.383-.285.515-.68a3.361,3.361,0,0,0,.151-.728,1.145,1.145,0,0,0-.053-.525c-.051-.113-.194-.046-.3-.156-.549,1.71-5.33,2.483-7.286.129a1.227,1.227,0,0,0-.057.62,2.857,2.857,0,0,0,.2.81c.122.278.277.47.434.422a.129.129,0,0,1,.157.1c.047.151.075.266.11.381,1.013,3.5,4.867,3.774,5.862.216Z" transform="translate(-3 0)" fill="#fff" fill-rule="evenodd"/>
  </g>
</svg>
