<svg xmlns="http://www.w3.org/2000/svg" width="141.407" height="47.731" viewBox="0 0 141.407 47.731">
  <g id="Group_245" data-name="Group 245" transform="translate(0.5 0.5)">
    <path id="Path_139" data-name="Path 139" d="M237.048,976.241a6.261,6.261,0,0,1-6.205,6.316H102.848a6.262,6.262,0,0,1-6.207-6.316v-34.1a6.262,6.262,0,0,1,6.207-6.315H230.843a6.261,6.261,0,0,1,6.205,6.315Z" transform="translate(-96.641 -935.825)" fill="#303030" stroke="#3f3f3f" stroke-width="1"/>
    <g id="Group_241" data-name="Group 241" transform="translate(10.402 7.401)">
      <path id="Path_140" data-name="Path 140" d="M159.308,1005.971a23.145,23.145,0,0,1-2.092,3.906c-1.359,2.069-3.274,4.644-5.646,4.666-2.109.019-2.65-1.372-5.511-1.357s-3.459,1.381-5.568,1.362c-2.372-.022-4.187-2.348-5.546-4.416-3.8-5.784-4.2-12.571-1.853-16.179a8.407,8.407,0,0,1,6.762-4.065c2.515,0,4.1,1.379,6.175,1.379,2.017,0,3.246-1.381,6.154-1.381a8.205,8.205,0,0,1,6.186,3.266A7.078,7.078,0,0,0,159.308,1005.971Z" transform="translate(-131.637 -982.347)" fill="#fff"/>
      <g id="Group_240" data-name="Group 240" transform="translate(13.3)">
        <path id="Path_141" data-name="Path 141" d="M185.247,967.583a7.058,7.058,0,0,0,1.567-5.228A7.627,7.627,0,0,0,181.892,965a6.553,6.553,0,0,0-1.609,5.1A6.437,6.437,0,0,0,185.247,967.583Z" transform="translate(-180.207 -962.355)" fill="#fff"/>
      </g>
    </g>
    <g id="Group_244" data-name="Group 244" transform="translate(48.301 7.401)">
      <g id="Group_242" data-name="Group 242" transform="translate(0 13.338)">
        <path id="Path_142" data-name="Path 142" d="M259.831,1004.42l-4.749,13.978h2.175l1.418-4.292h4.6l1.458,4.292h2.235L262.2,1004.42Zm1.127,2.3c.16.624.333,1.272.556,1.972l1.28,3.706h-3.642l1.262-3.73C260.6,1008.061,260.787,1007.408,260.957,1006.718Z" transform="translate(-255.082 -1004.198)" fill="#fff"/>
        <path id="Path_143" data-name="Path 143" d="M313.395,1019.586a3.957,3.957,0,0,0-3.362,1.613l-.084-1.39h-1.934l.011.178c.057.866.081,1.819.081,3.188v10.774h2.115v-5.028a3.714,3.714,0,0,0,2.891,1.242,4.361,4.361,0,0,0,3.2-1.362,5.778,5.778,0,0,0,1.415-4.068,5.626,5.626,0,0,0-1.229-3.714A4.024,4.024,0,0,0,313.395,1019.586Zm-.527,1.751c1.885,0,2.729,1.747,2.729,3.477,0,2.232-1.077,3.618-2.809,3.618a2.564,2.564,0,0,1-2.491-1.963,2.7,2.7,0,0,1-.075-.685v-1.7a3.19,3.19,0,0,1,.067-.522c.01-.058.022-.116.03-.172A2.678,2.678,0,0,1,312.868,1021.337Z" transform="translate(-295.368 -1015.74)" fill="#fff"/>
        <path id="Path_144" data-name="Path 144" d="M358.976,1019.586a3.959,3.959,0,0,0-3.362,1.613l-.084-1.39H353.6l.011.178c.057.867.081,1.819.081,3.188v10.774H355.8v-5.028a3.712,3.712,0,0,0,2.89,1.242,4.366,4.366,0,0,0,3.206-1.362,5.785,5.785,0,0,0,1.414-4.068,5.626,5.626,0,0,0-1.229-3.714A4.022,4.022,0,0,0,358.976,1019.586Zm-.526,1.751c1.884,0,2.728,1.747,2.728,3.477,0,2.232-1.077,3.618-2.809,3.618a2.564,2.564,0,0,1-2.491-1.963,2.7,2.7,0,0,1-.075-.685v-1.7a3.144,3.144,0,0,1,.067-.524c.01-.057.021-.114.031-.17A2.676,2.676,0,0,1,358.45,1021.337Z" transform="translate(-330.059 -1015.74)" fill="#fff"/>
        <path id="Path_145" data-name="Path 145" d="M417.18,1009.633c-1.974-.764-2.606-1.365-2.606-2.476,0-.935.743-1.878,2.4-1.878a4.8,4.8,0,0,1,2.483.623l.179.111.6-1.765-.118-.069a6.13,6.13,0,0,0-3.08-.691c-2.7,0-4.581,1.592-4.581,3.871,0,1.838,1.18,3.123,3.712,4.043,1.795.671,2.463,1.358,2.463,2.536,0,1.333-1.031,2.161-2.688,2.161a5.789,5.789,0,0,1-3.048-.864l-.183-.118-.568,1.806.1.069a7.242,7.242,0,0,0,3.574.919c3.635,0,4.923-2.216,4.923-4.114C420.747,1011.84,419.714,1010.633,417.18,1009.633Z" transform="translate(-374.62 -1003.488)" fill="#fff"/>
        <path id="Path_146" data-name="Path 146" d="M452.638,1010.439l-2.074.651v1.757h-1.518v1.69h1.518v5.177a3.957,3.957,0,0,0,.732,2.683,2.711,2.711,0,0,0,2.046.8,4.988,4.988,0,0,0,1.635-.252l.119-.042-.1-1.693-.2.062a3.182,3.182,0,0,1-.984.114c-.819,0-1.169-.518-1.169-1.736v-5.116h2.551v-1.69h-2.551Z" transform="translate(-402.704 -1008.779)" fill="#fff"/>
        <path id="Path_147" data-name="Path 147" d="M480.687,1019.586c-2.959,0-5.025,2.208-5.025,5.369,0,3.066,2,5.207,4.864,5.207h.02a4.986,4.986,0,0,0,5.025-5.389,5.343,5.343,0,0,0-1.348-3.741A4.706,4.706,0,0,0,480.687,1019.586Zm-.061,1.669c1.9,0,2.769,1.855,2.769,3.579,0,2.12-1.182,3.659-2.809,3.659h-.02c-1.6,0-2.768-1.513-2.768-3.6C477.8,1023.084,478.672,1021.256,480.626,1021.256Z" transform="translate(-422.962 -1015.74)" fill="#fff"/>
        <path id="Path_148" data-name="Path 148" d="M527.475,1019.684l-.127-.032a2.034,2.034,0,0,0-.526-.066,3.016,3.016,0,0,0-2.652,1.7l-.062-1.48h-1.9l.012.178c.056.837.08,1.777.08,3.045l-.02,6.908H524.4v-5.39a5.454,5.454,0,0,1,.058-.82,2.337,2.337,0,0,1,2.225-2.131,5.372,5.372,0,0,1,.567.035l.226.023Z" transform="translate(-458.389 -1015.74)" fill="#fff"/>
        <path id="Path_149" data-name="Path 149" d="M548.912,1019.5c-2.815,0-4.781,2.249-4.781,5.47a4.729,4.729,0,0,0,4.984,5.107,8.107,8.107,0,0,0,3.348-.643l.127-.057-.406-1.576-.176.071a6.555,6.555,0,0,1-2.65.474,2.94,2.94,0,0,1-3.167-3.066l6.826.021.028-.135a4.7,4.7,0,0,0,.064-.883C553.108,1022.078,552.009,1019.5,548.912,1019.5Zm-.141,1.609a2.087,2.087,0,0,1,1.553.592,3.011,3.011,0,0,1,.728,1.969h-4.823A2.7,2.7,0,0,1,548.772,1021.111Z" transform="translate(-475.072 -1015.676)" fill="#fff"/>
      </g>
      <g id="Group_243" data-name="Group 243" transform="translate(0.185 0)">
        <path id="Path_150" data-name="Path 150" d="M255.082,964.018a15.393,15.393,0,0,1,2.028-.137,4.526,4.526,0,0,1,2.978.815,2.894,2.894,0,0,1,1.047,2.385,3.349,3.349,0,0,1-1.058,2.571,4.907,4.907,0,0,1-3.261.953,14.644,14.644,0,0,1-1.734-.079Zm.96,5.86a6.784,6.784,0,0,0,.96.04c2.028.009,3.13-1.021,3.13-2.807.011-1.58-.971-2.552-2.977-2.552a6.03,6.03,0,0,0-1.112.088Z" transform="translate(-255.082 -963.577)" fill="#8e8e8e"/>
        <path id="Path_151" data-name="Path 151" d="M286.594,976.406a2.384,2.384,0,0,1-2.53-2.444,2.45,2.45,0,0,1,2.617-2.522,2.365,2.365,0,0,1,2.541,2.434,2.459,2.459,0,0,1-2.617,2.532Zm.033-.648a1.69,1.69,0,0,0,1.6-1.855,1.614,1.614,0,1,0-1.614,1.855Z" transform="translate(-277.14 -969.33)" fill="#8e8e8e"/>
        <path id="Path_152" data-name="Path 152" d="M308.882,971.891l.709,2.4c.141.53.284,1.031.382,1.521h.033c.12-.481.294-.991.469-1.511l.862-2.415h.807l.818,2.375c.2.56.349,1.07.469,1.551h.033a13.128,13.128,0,0,1,.4-1.541l.752-2.385h.949l-1.7,4.75h-.873l-.807-2.267a15.576,15.576,0,0,1-.47-1.57H311.7a13.054,13.054,0,0,1-.48,1.58l-.85,2.257h-.872l-1.593-4.75Z" transform="translate(-295.281 -969.673)" fill="#8e8e8e"/>
        <path id="Path_153" data-name="Path 153" d="M343.872,972.834c0-.5-.011-.893-.044-1.286h.851l.054.776h.022a2,2,0,0,1,1.745-.884,1.807,1.807,0,0,1,1.865,2.022V976.3h-.959V973.56c0-.766-.317-1.413-1.222-1.413a1.369,1.369,0,0,0-1.287.883,1.162,1.162,0,0,0-.066.4V976.3h-.959Z" transform="translate(-322.626 -969.33)" fill="#8e8e8e"/>
        <path id="Path_154" data-name="Path 154" d="M369.346,962.607h.96v6.968h-.96Z" transform="translate(-342.047 -962.607)" fill="#8e8e8e"/>
        <path id="Path_155" data-name="Path 155" d="M380.962,976.406a2.385,2.385,0,0,1-2.53-2.444,2.45,2.45,0,0,1,2.617-2.522,2.365,2.365,0,0,1,2.541,2.434,2.46,2.46,0,0,1-2.617,2.532Zm.032-.648a1.69,1.69,0,0,0,1.6-1.855,1.614,1.614,0,1,0-1.614,1.855Z" transform="translate(-348.962 -969.33)" fill="#8e8e8e"/>
        <path id="Path_156" data-name="Path 156" d="M407.49,975.16a7.164,7.164,0,0,0,.077,1.138H406.7l-.087-.6h-.032a2.029,2.029,0,0,1-1.614.706,1.439,1.439,0,0,1-1.614-1.364c0-1.148,1.134-1.777,3.173-1.767v-.1c0-.392-.119-1.109-1.2-1.1a2.757,2.757,0,0,0-1.385.353l-.218-.579a3.719,3.719,0,0,1,1.745-.412,1.766,1.766,0,0,1,2.017,1.943Zm-.938-1.286c-1.047-.02-2.236.147-2.236,1.07a.8.8,0,0,0,.894.825,1.331,1.331,0,0,0,1.3-.8.789.789,0,0,0,.044-.275Z" transform="translate(-367.932 -969.33)" fill="#8e8e8e"/>
        <path id="Path_157" data-name="Path 157" d="M430.436,962.607v5.741c0,.422.012.9.044,1.227h-.861l-.044-.824h-.022a1.975,1.975,0,0,1-1.788.933,2.265,2.265,0,0,1-2.269-2.415,2.368,2.368,0,0,1,2.366-2.552,1.815,1.815,0,0,1,1.593.717h.022v-2.827Zm-.959,4.151a1.438,1.438,0,0,0-.044-.373,1.387,1.387,0,0,0-1.385-.992,1.625,1.625,0,0,0-1.582,1.826,1.576,1.576,0,0,0,1.56,1.766,1.428,1.428,0,0,0,1.407-1.031,1.346,1.346,0,0,0,.044-.373Z" transform="translate(-384.782 -962.607)" fill="#8e8e8e"/>
        <path id="Path_158" data-name="Path 158" d="M463.45,976.406a2.385,2.385,0,0,1-2.53-2.444,2.451,2.451,0,0,1,2.617-2.522,2.365,2.365,0,0,1,2.541,2.434,2.46,2.46,0,0,1-2.617,2.532Zm.033-.648a1.69,1.69,0,0,0,1.6-1.855,1.614,1.614,0,1,0-1.614,1.855Z" transform="translate(-411.743 -969.33)" fill="#8e8e8e"/>
        <path id="Path_159" data-name="Path 159" d="M487.442,972.834c0-.5-.011-.893-.044-1.286h.851l.055.776h.022a2,2,0,0,1,1.745-.884,1.807,1.807,0,0,1,1.865,2.022V976.3h-.96V973.56c0-.766-.316-1.413-1.222-1.413a1.371,1.371,0,0,0-1.287.883,1.17,1.17,0,0,0-.065.4V976.3h-.959Z" transform="translate(-431.895 -969.33)" fill="#8e8e8e"/>
        <path id="Path_160" data-name="Path 160" d="M521.84,967.127v1.138h1.374v.657H521.84v2.562c0,.589.186.923.72.923a1.973,1.973,0,0,0,.556-.059l.043.657a2.882,2.882,0,0,1-.851.118,1.454,1.454,0,0,1-1.036-.363,1.725,1.725,0,0,1-.371-1.247v-2.591h-.818v-.657h.818v-.874Z" transform="translate(-456.772 -966.047)" fill="#8e8e8e"/>
        <path id="Path_161" data-name="Path 161" d="M537.705,962.607h.959v2.964h.022a1.629,1.629,0,0,1,.687-.608,2.025,2.025,0,0,1,.982-.245,1.806,1.806,0,0,1,1.843,2.032v2.827h-.959v-2.729c0-.775-.316-1.413-1.222-1.413a1.379,1.379,0,0,0-1.287.864.95.95,0,0,0-.066.412v2.866h-.959Z" transform="translate(-470.183 -962.607)" fill="#8e8e8e"/>
        <path id="Path_162" data-name="Path 162" d="M562.37,974.038a1.609,1.609,0,0,0,1.8,1.65,4.007,4.007,0,0,0,1.462-.236l.174.609a4.722,4.722,0,0,1-1.767.3,2.341,2.341,0,0,1-2.6-2.395,2.418,2.418,0,0,1,2.486-2.572,2.079,2.079,0,0,1,2.17,2.238,1.988,1.988,0,0,1-.032.412Zm2.8-.618a1.275,1.275,0,0,0-1.32-1.4,1.494,1.494,0,0,0-1.472,1.4Z" transform="translate(-488.25 -969.298)" fill="#8e8e8e"/>
      </g>
    </g>
  </g>
</svg>
