<svg id="handyman-worker" xmlns="http://www.w3.org/2000/svg" width="28.575" height="30.225" viewBox="0 0 28.575 30.225">
  <path id="Path_5" data-name="Path 5" d="M20.792,6.763l-.007.027A29.332,29.332,0,0,0,14.6,6.3a33.18,33.18,0,0,0-7.032.782l0-.011C5.742-3.019,23.2-1.578,20.792,6.763ZM6.786,25.9a.753.753,0,0,1,0,1.487.753.753,0,0,1,0-1.487Zm15.25,0a.753.753,0,1,1-.633.744.7.7,0,0,1,.633-.744ZM10.648,17.685a7.181,7.181,0,0,1-3.253,1.435l1.544,5.148H20.162l1.216-5.113a6.282,6.282,0,0,1-2.57-.642,3.425,3.425,0,0,1-.856-.973l-.044-.85a4.905,4.905,0,0,0,.7-.839,6.642,6.642,0,0,0,.867-2.28c.044-.189.088-.377.142-.566.437-.052.821-.629,1.053-1.345a5.671,5.671,0,0,0,.251-1.249,2.2,2.2,0,0,0-.126-1.072.567.567,0,0,0-.456-.366,5,5,0,0,1,.174-1.126A28.947,28.947,0,0,0,14.606,7.4a32.429,32.429,0,0,0-6.846.76l.2,1.113a2.427,2.427,0,0,0-.142,1.249,4.829,4.829,0,0,0,.349,1.408c.233.536.563.913.946.913.035.126.081.262.116.4a8.1,8.1,0,0,0,1.107,2.679,4.548,4.548,0,0,0,.528.629l-.044.954c-.056.063-.112.12-.17.178ZM5.6,19.512c-2,.533-3.744,1.687-4.73,6.775L0,30.224H4.744V25.354a1.018,1.018,0,0,1,.923-1.085h.986A20.827,20.827,0,0,0,5.6,19.512ZM24.078,30.224h4.5l-.923-4.23c-.86-4.555-2.6-5.96-4.414-6.5a26.186,26.186,0,0,0-.777,4.771h.7a1.018,1.018,0,0,1,.923,1.085v4.872ZM12.4,3.646h3.772a.177.177,0,0,1,.16.189V4.857a.177.177,0,0,1-.16.189H12.4a.177.177,0,0,1-.16-.189V3.835a.177.177,0,0,1,.16-.189Zm4.942,13.38a3.947,3.947,0,0,1-2.928,1.187,4.591,4.591,0,0,1-2.946-1.282c-.074,4.981,5.979,5.277,5.874.1Zm1.512-3.614c.053-.221.116-.451.188-.725a.208.208,0,0,1,.223-.178c.3.063.591-.44.8-1.05a5.186,5.186,0,0,0,.233-1.124,1.766,1.766,0,0,0-.081-.809c-.079-.175-.3-.071-.465-.241-.846,2.638-8.223,3.83-11.241.2a1.893,1.893,0,0,0-.088.957,4.408,4.408,0,0,0,.312,1.249c.188.429.428.725.67.651a.2.2,0,0,1,.242.148c.072.232.116.41.17.588,1.563,5.4,7.509,5.823,9.044.334Z" transform="translate(0 0.001)" fill="#fff" fill-rule="evenodd"/>
</svg>
