<svg xmlns="http://www.w3.org/2000/svg" xmlns:xlink="http://www.w3.org/1999/xlink" width="141.06" height="47.731" viewBox="0 0 141.06 47.731">
  <defs>
    <clipPath id="clip-path">
      <path id="Path_114" data-name="Path 114" d="M154.853,340.911l-6.315-3.646-12.182-7.034c-.676-.39-1.35-.154-1.35.662V359.55c0,.612.482.875,1.069.536l12.462-7.2,6.315-3.646,6.071-3.5c.712-.412.644-.976.043-1.3S154.853,340.911,154.853,340.911Z" transform="translate(-135.006 -330.048)" fill="none"/>
    </clipPath>
    <linearGradient id="linear-gradient" x1="0.5" x2="0.5" y2="1" gradientUnits="objectBoundingBox">
      <stop offset="0" stop-color="#006aa2"/>
      <stop offset="0.345" stop-color="#2f8da6"/>
      <stop offset="0.786" stop-color="#66b6ac"/>
      <stop offset="1" stop-color="#7cc6af"/>
    </linearGradient>
    <linearGradient id="linear-gradient-2" y1="0.5" x2="1" y2="0.5" gradientUnits="objectBoundingBox">
      <stop offset="0" stop-color="#4ab59d"/>
      <stop offset="1" stop-color="#dfe385"/>
    </linearGradient>
    <linearGradient id="linear-gradient-3" x1="0.5" x2="0.5" y2="1" gradientUnits="objectBoundingBox">
      <stop offset="0" stop-color="#e4282d"/>
      <stop offset="0.316" stop-color="#ba2d4e"/>
      <stop offset="0.777" stop-color="#83357b"/>
      <stop offset="1" stop-color="#6e388d"/>
    </linearGradient>
    <linearGradient id="linear-gradient-4" x1="0.5" x2="0.5" y2="1" gradientUnits="objectBoundingBox">
      <stop offset="0" stop-color="#f07165"/>
      <stop offset="0.659" stop-color="#faa460"/>
      <stop offset="1" stop-color="#ffba5e"/>
    </linearGradient>
  </defs>
  <g id="Group_239" data-name="Group 239" transform="translate(0.5 0.5)">
    <path id="Path_109" data-name="Path 109" d="M236.7,336.49a6.254,6.254,0,0,1-6.19,6.316H102.833a6.255,6.255,0,0,1-6.192-6.316v-34.1a6.255,6.255,0,0,1,6.192-6.315H230.511a6.254,6.254,0,0,1,6.19,6.315Z" transform="translate(-96.641 -296.074)" fill="#303030" stroke="#3f3f3f" stroke-width="1"/>
    <g id="PLAY" transform="translate(10.506 10.219)">
      <g id="Group_234" data-name="Group 234" clip-path="url(#clip-path)">
        <path id="Path_110" data-name="Path 110" d="M135.006,328.285v31.026L150.651,343.8Z" transform="translate(-135.006 -328.768)" fill="url(#linear-gradient)"/>
        <path id="Path_111" data-name="Path 111" d="M154.853,339.332l-6.315-3.646-13.532-7.813v.113L150.651,343.5Z" transform="translate(-135.006 -328.469)" fill="url(#linear-gradient-2)"/>
        <path id="Path_112" data-name="Path 112" d="M135.006,400.45v.113l13.532-7.813,6.315-3.646-4.2-4.166Z" transform="translate(-135.006 -369.907)" fill="url(#linear-gradient-3)"/>
        <path id="Path_113" data-name="Path 113" d="M196.342,369.721l-4.2,4.167,4.2,4.166,7.217-4.167Z" transform="translate(-176.495 -358.857)" fill="url(#linear-gradient-4)"/>
      </g>
    </g>
    <g id="Group_235" data-name="Group 235" transform="translate(104.803 20.176)">
      <path id="Path_115" data-name="Path 115" d="M483.566,382.284a3.9,3.9,0,0,1-1.609-.325,3.033,3.033,0,0,1-1.223-1h-.1a12.143,12.143,0,0,1,.1,1.5v3.713h-1.366V373.1h1.111l.189,1.235h.066a3.175,3.175,0,0,1,1.227-1.07,3.726,3.726,0,0,1,1.6-.329,3.335,3.335,0,0,1,2.77,1.227,6.534,6.534,0,0,1-.016,6.9A3.343,3.343,0,0,1,483.566,382.284Zm-.2-8.191a2.422,2.422,0,0,0-2,.766,3.942,3.942,0,0,0-.634,2.437v.3a4.513,4.513,0,0,0,.634,2.721,2.411,2.411,0,0,0,2.033.819,2.115,2.115,0,0,0,1.832-.946,4.492,4.492,0,0,0,.662-2.61,4.323,4.323,0,0,0-.662-2.589A2.181,2.181,0,0,0,483.368,374.093Z" transform="translate(-479.368 -369.31)" fill="#fff"/>
      <path id="Path_116" data-name="Path 116" d="M516.311,372.513h-1.367V359.7h1.367Z" transform="translate(-505.202 -359.703)" fill="#fff"/>
      <path id="Path_117" data-name="Path 117" d="M532.121,382.163l-.272-1.284h-.066a3.786,3.786,0,0,1-1.346,1.148,4.089,4.089,0,0,1-1.675.3,3.014,3.014,0,0,1-2.1-.691,2.521,2.521,0,0,1-.762-1.967q0-2.733,4.371-2.865l1.532-.05v-.559a2.285,2.285,0,0,0-.457-1.568,1.878,1.878,0,0,0-1.461-.507,5.951,5.951,0,0,0-2.552.692l-.42-1.046a6.424,6.424,0,0,1,1.462-.568,6.325,6.325,0,0,1,1.593-.206,3.438,3.438,0,0,1,2.392.716,2.992,2.992,0,0,1,.778,2.3v6.158Zm-3.087-.963a2.776,2.776,0,0,0,2-.7,2.591,2.591,0,0,0,.729-1.96v-.815l-1.367.057a4.972,4.972,0,0,0-2.35.507,1.527,1.527,0,0,0-.72,1.4,1.406,1.406,0,0,0,.449,1.128A1.86,1.86,0,0,0,529.034,381.2Z" transform="translate(-513.156 -369.353)" fill="#fff"/>
      <path id="Path_118" data-name="Path 118" d="M555.222,373.533h1.465l1.976,5.146a19.641,19.641,0,0,1,.807,2.544h.066q.107-.421.448-1.437t2.235-6.252h1.466l-3.878,10.274a5.125,5.125,0,0,1-1.347,2.162,2.862,2.862,0,0,1-1.889.637,5.531,5.531,0,0,1-1.235-.139v-1.095a4.769,4.769,0,0,0,1.013.1,2.087,2.087,0,0,0,2.009-1.581l.5-1.284Z" transform="translate(-534.451 -369.746)" fill="#fff"/>
    </g>
    <g id="Group_237" data-name="Group 237" transform="translate(42.503 19.184)">
      <path id="Path_119" data-name="Path 119" d="M383.582,374.793a3.074,3.074,0,0,1-.246,5.227,1.328,1.328,0,0,0-.528.926,1.035,1.035,0,0,0,.491.811l.68.527a3.286,3.286,0,0,1,1.584,2.643c0,1.774-1.717,3.566-4.963,3.566-2.737,0-4.057-1.3-4.057-2.7a2.716,2.716,0,0,1,1.453-2.3,8.136,8.136,0,0,1,3.6-.869,1.975,1.975,0,0,1-.567-1.282,1.7,1.7,0,0,1,.189-.737c-.208.019-.416.038-.6.038a2.984,2.984,0,0,1-3.132-2.962,3.4,3.4,0,0,1,1.207-2.529,5.146,5.146,0,0,1,3.379-1.038h3.887l-1.208.68Zm-1.34,8.38a2.936,2.936,0,0,0-.433-.02,7.554,7.554,0,0,0-1.982.3A2.12,2.12,0,0,0,378.2,385.4c0,1.339,1.3,2.3,3.322,2.3,1.811,0,2.774-.87,2.774-2.039C384.3,384.7,383.677,384.192,382.242,383.172Zm.548-3.586a1.909,1.909,0,0,0,.471-1.378c0-1.358-.811-3.472-2.377-3.472a1.763,1.763,0,0,0-1.322.623,2.18,2.18,0,0,0-.415,1.4c0,1.264.736,3.359,2.36,3.359A1.933,1.933,0,0,0,382.79,379.586Z" transform="translate(-342.4 -369.158)" fill="#fff"/>
      <path id="Path_120" data-name="Path 120" d="M346.67,382.16a4.447,4.447,0,0,1-4.6-4.448,4.669,4.669,0,0,1,4.881-4.578,4.4,4.4,0,0,1,4.5,4.447A4.6,4.6,0,0,1,346.67,382.16Zm2.355-1.526a3.408,3.408,0,0,0,.566-2.092c0-1.659-.791-4.823-3.128-4.823a2.625,2.625,0,0,0-1.7.642,2.851,2.851,0,0,0-.868,2.3c0,1.864.923,4.934,3.2,4.934A2.406,2.406,0,0,0,349.025,380.634Z" transform="translate(-317.369 -368.448)" fill="#fff"/>
      <path id="Path_121" data-name="Path 121" d="M309.374,382.16a4.447,4.447,0,0,1-4.6-4.448,4.669,4.669,0,0,1,4.881-4.578,4.4,4.4,0,0,1,4.5,4.447A4.6,4.6,0,0,1,309.374,382.16Zm2.356-1.526a3.414,3.414,0,0,0,.565-2.092c0-1.659-.792-4.823-3.128-4.823a2.626,2.626,0,0,0-1.7.642,2.851,2.851,0,0,0-.867,2.3c0,1.864.923,4.934,3.2,4.934A2.408,2.408,0,0,0,311.729,380.634Z" transform="translate(-290.285 -368.448)" fill="#fff"/>
      <path id="Path_122" data-name="Path 122" d="M264.908,370.555l-2.709.625a20.083,20.083,0,0,1-3.125.321c-5.229,0-7.217-3.846-7.217-6.858,0-3.675,2.822-7.083,7.653-7.083a10.9,10.9,0,0,1,2.9.4,7.386,7.386,0,0,1,2.5,1.174l-1.573,1.5-.663.151.473-.758a5.414,5.414,0,0,0-4.054-1.78,5.232,5.232,0,0,0-5.248,5.589,6.7,6.7,0,0,0,6.706,6.913,5.641,5.641,0,0,0,2.406-.474v-3.049l-2.86.151,1.515-.815h4.016l-.492.473a.442.442,0,0,0-.19.3c-.02.171-.038.721-.038.91Z" transform="translate(-251.856 -357.138)" fill="#fff"/>
      <path id="Path_123" data-name="Path 123" d="M413.445,368.89c-.625-.057-.756-.17-.756-.91V357.259c0-.041.007-.083.01-.122.076-.663.265-.776.854-1.118h-2.71l-1.421.682h1.448v11.7c0,.378-.075.435-.511,1h3.353l.7-.416C414.09,368.947,413.767,368.928,413.445,368.89Z" transform="translate(-366.275 -356.019)" fill="#fff"/>
      <path id="Path_124" data-name="Path 124" d="M434.056,381.509c-.206.113-.413.246-.619.339a4.38,4.38,0,0,1-1.827.358,4.02,4.02,0,0,1-2.5-.734,4.869,4.869,0,0,1-1.918-3.97,4.264,4.264,0,0,1,4.308-4.345,3.656,3.656,0,0,1,1.939.527,3.114,3.114,0,0,1,1.315,1.861l-4.42,1.788-1.449.113c.47,2.389,2.087,3.78,3.875,3.78a4.861,4.861,0,0,0,2.295-.657Zm-1.768-5.607c.357-.131.545-.245.545-.508a1.867,1.867,0,0,0-1.863-1.618,2.317,2.317,0,0,0-2.163,2.615c0,.32.038.658.057,1Z" transform="translate(-379.178 -368.463)" fill="#fff"/>
      <g id="Group_236" data-name="Group 236" transform="translate(56.133 4.693)">
        <path id="Path_125" data-name="Path 125" d="M457.407,373.285v1.241h-.151v-1.241h-.411v-.129h.972v.129Z" transform="translate(-456.846 -373.156)" fill="#fff"/>
        <path id="Path_126" data-name="Path 126" d="M462.333,374.526v-1.253h-.007l-.383,1.253h-.118l-.386-1.253h0v1.253H461.3v-1.37h.235l.349,1.107h0l.344-1.107h.238v1.37Z" transform="translate(-460.079 -373.156)" fill="#fff"/>
      </g>
    </g>
    <g id="Group_238" data-name="Group 238" transform="translate(42.535 10.463)">
      <path id="Path_127" data-name="Path 127" d="M256.789,335.047h-1.215a8.057,8.057,0,0,0-.346-1.42h-1.754a7.342,7.342,0,0,0-.357,1.42h-1.143q0-.148.887-2.43a19.118,19.118,0,0,0,.887-2.514h1.435a21,21,0,0,0,.8,2.477A21.7,21.7,0,0,1,256.789,335.047Zm-1.755-2.146a21.5,21.5,0,0,1-.649-2.119h-.061a22.222,22.222,0,0,1-.672,2.119Z" transform="translate(-251.974 -329.989)" fill="#8e8e8e"/>
      <path id="Path_128" data-name="Path 128" d="M272,335.047h-.938a9.251,9.251,0,0,0-1.044-1.644,9.061,9.061,0,0,1-1.245-2.146h-.061a13.378,13.378,0,0,1,.1,1.5q0,.938.053,2.286h-.934q.057-1.177.057-2.586,0-1.386-.057-2.358h1.128a7.144,7.144,0,0,0,.938,1.606,9.459,9.459,0,0,1,1.147,2.024h.057a14.424,14.424,0,0,1-.091-1.519q0-1.029-.053-2.111H272q-.053.942-.053,2.358T272,335.047Z" transform="translate(-262.283 -329.989)" fill="#8e8e8e"/>
      <path id="Path_129" data-name="Path 129" d="M287.378,332.362a2.8,2.8,0,0,1-.691,1.884,2.414,2.414,0,0,1-1.937.805q-.562,0-1.549-.046.049-1.147.049-2.586,0-1.382-.049-2.358h.665q.163,0,.486-.012c.215-.007.356-.011.421-.011a2.56,2.56,0,0,1,1.988.684A2.363,2.363,0,0,1,287.378,332.362Zm-1.037.163a1.83,1.83,0,0,0-.425-1.228,1.613,1.613,0,0,0-1.3-.5,4.014,4.014,0,0,0-.448.034q.038.76.038,1.587,0,.908.038,1.8a2.512,2.512,0,0,0,.494.049,1.435,1.435,0,0,0,1.209-.507A1.956,1.956,0,0,0,286.341,332.525Z" transform="translate(-272.161 -329.947)" fill="#8e8e8e"/>
      <path id="Path_130" data-name="Path 130" d="M302.054,335.005h-1.124a7.462,7.462,0,0,0-.676-1.659.886.886,0,0,0-.759-.315c-.147,0-.287,0-.422,0q0,.976.034,1.971h-1.056q.049-1.147.049-2.586,0-1.382-.049-2.358h.657q.114,0,.477-.012t.67-.011q1.743,0,1.743,1.192a1.338,1.338,0,0,1-1,1.318v.057a1.186,1.186,0,0,1,.672.6A13.211,13.211,0,0,1,302.054,335.005Zm-1.424-3.494q0-.756-.972-.756a3.308,3.308,0,0,0-.631.053q.042.589.042,1.534.208.007.353.007Q300.629,332.351,300.63,331.511Z" transform="translate(-281.762 -329.947)" fill="#8e8e8e"/>
      <path id="Path_131" data-name="Path 131" d="M315.931,332.275a2.728,2.728,0,0,1-.714,1.933,2.317,2.317,0,0,1-1.766.767,2.231,2.231,0,0,1-1.678-.7,2.48,2.48,0,0,1-.676-1.79,2.726,2.726,0,0,1,.714-1.933,2.316,2.316,0,0,1,1.766-.767,2.234,2.234,0,0,1,1.679.7A2.479,2.479,0,0,1,315.931,332.275Zm-1.048.11a1.96,1.96,0,0,0-.407-1.287,1.251,1.251,0,0,0-1-.494,1.158,1.158,0,0,0-.942.5,1.985,1.985,0,0,0-.387,1.257,1.955,1.955,0,0,0,.408,1.285,1.251,1.251,0,0,0,1,.5,1.157,1.157,0,0,0,.942-.5A1.987,1.987,0,0,0,314.883,332.385Z" transform="translate(-290.196 -329.78)" fill="#8e8e8e"/>
      <path id="Path_132" data-name="Path 132" d="M328.88,335.047H327.8q.049-1.177.05-2.586,0-1.386-.05-2.358h1.075q-.049.957-.049,2.358Q328.831,333.893,328.88,335.047Z" transform="translate(-300.997 -329.989)" fill="#8e8e8e"/>
      <path id="Path_133" data-name="Path 133" d="M338.776,332.362a2.8,2.8,0,0,1-.691,1.884,2.413,2.413,0,0,1-1.937.805q-.562,0-1.549-.046.049-1.147.049-2.586,0-1.382-.049-2.358h.665q.163,0,.486-.012t.421-.011a2.56,2.56,0,0,1,1.988.684A2.364,2.364,0,0,1,338.776,332.362Zm-1.037.163a1.831,1.831,0,0,0-.425-1.228,1.613,1.613,0,0,0-1.3-.5,4.009,4.009,0,0,0-.448.034q.038.76.038,1.587,0,.908.038,1.8a2.513,2.513,0,0,0,.494.049,1.435,1.435,0,0,0,1.209-.507A1.957,1.957,0,0,0,337.74,332.525Z" transform="translate(-305.389 -329.947)" fill="#8e8e8e"/>
      <path id="Path_134" data-name="Path 134" d="M358.265,335.047H357.05a8.01,8.01,0,0,0-.346-1.42H354.95a7.327,7.327,0,0,0-.357,1.42H353.45q0-.148.887-2.43a19.071,19.071,0,0,0,.887-2.514h1.435a20.953,20.953,0,0,0,.8,2.477A21.793,21.793,0,0,1,358.265,335.047Zm-1.755-2.146a21.554,21.554,0,0,1-.65-2.119H355.8a22.213,22.213,0,0,1-.672,2.119Z" transform="translate(-317.576 -329.989)" fill="#8e8e8e"/>
      <path id="Path_135" data-name="Path 135" d="M373,331.356a1.481,1.481,0,0,1-.675,1.341,3,3,0,0,1-1.653.433q-.179,0-.255-.007,0,.714.042,1.884H369.4q.049-1.1.049-2.586,0-1.367-.049-2.358h.661q.14,0,.539-.012t.691-.011a2.174,2.174,0,0,1,1.219.327A1.1,1.1,0,0,1,373,331.356Zm-.98.209q0-.812-1.079-.812a3.035,3.035,0,0,0-.57.057q.042.717.042,1.625.095.008.22.008Q372.024,332.442,372.024,331.564Z" transform="translate(-327.885 -329.947)" fill="#8e8e8e"/>
      <path id="Path_136" data-name="Path 136" d="M385.888,331.356a1.481,1.481,0,0,1-.674,1.341,3,3,0,0,1-1.654.433c-.119,0-.2,0-.254-.007q0,.714.042,1.884H382.28q.049-1.1.049-2.586,0-1.367-.049-2.358h.661q.141,0,.539-.012t.691-.011a2.174,2.174,0,0,1,1.219.327A1.1,1.1,0,0,1,385.888,331.356Zm-.98.209q0-.812-1.079-.812a3.035,3.035,0,0,0-.569.057q.042.717.042,1.625c.063.005.137.008.22.008Q384.908,332.442,384.908,331.564Z" transform="translate(-336.214 -329.947)" fill="#8e8e8e"/>
      <path id="Path_137" data-name="Path 137" d="M404.709,332.275a2.726,2.726,0,0,1-.714,1.933,2.316,2.316,0,0,1-1.766.767,2.231,2.231,0,0,1-1.679-.7,2.481,2.481,0,0,1-.676-1.79,2.727,2.727,0,0,1,.714-1.933,2.318,2.318,0,0,1,1.766-.767,2.235,2.235,0,0,1,1.679.7A2.48,2.48,0,0,1,404.709,332.275Zm-1.048.11a1.959,1.959,0,0,0-.407-1.287,1.25,1.25,0,0,0-1-.494,1.159,1.159,0,0,0-.942.5,1.985,1.985,0,0,0-.387,1.257,1.955,1.955,0,0,0,.408,1.285,1.25,1.25,0,0,0,1,.5,1.156,1.156,0,0,0,.942-.5A1.984,1.984,0,0,0,403.661,332.385Z" transform="translate(-347.589 -329.78)" fill="#8e8e8e"/>
      <path id="Path_138" data-name="Path 138" d="M420.659,335.047h-.938a9.251,9.251,0,0,0-1.044-1.644,9.065,9.065,0,0,1-1.246-2.146h-.06a13.456,13.456,0,0,1,.095,1.5q0,.938.053,2.286h-.934q.057-1.177.057-2.586,0-1.386-.057-2.358h1.128a7.159,7.159,0,0,0,.938,1.606,9.458,9.458,0,0,1,1.147,2.024h.057a14.364,14.364,0,0,1-.091-1.519q0-1.029-.053-2.111h.949q-.053.942-.053,2.358T420.659,335.047Z" transform="translate(-358.391 -329.989)" fill="#8e8e8e"/>
    </g>
  </g>
</svg>
