<svg xmlns="http://www.w3.org/2000/svg" width="13.269" height="11.61" viewBox="0 0 13.269 11.61">
  <path id="FontAwsome_quote-left_" data-name="FontAwsome (quote-left)" d="M12.025,37.805H9.951V36.146a1.66,1.66,0,0,1,1.659-1.659h.207a.62.62,0,0,0,.622-.622V32.622A.62.62,0,0,0,11.817,32H11.61a4.145,4.145,0,0,0-4.146,4.146v6.22A1.244,1.244,0,0,0,8.708,43.61h3.317a1.244,1.244,0,0,0,1.244-1.244V39.049A1.244,1.244,0,0,0,12.025,37.805Zm-7.464,0H2.488V36.146a1.66,1.66,0,0,1,1.659-1.659h.207a.62.62,0,0,0,.622-.622V32.622A.62.62,0,0,0,4.354,32H4.146A4.145,4.145,0,0,0,0,36.146v6.22A1.244,1.244,0,0,0,1.244,43.61H4.561a1.244,1.244,0,0,0,1.244-1.244V39.049A1.244,1.244,0,0,0,4.561,37.805Z" transform="translate(0 -32)" fill="#8e8e8e" opacity="0.24"/>
</svg>
