<svg xmlns="http://www.w3.org/2000/svg" width="53.38" height="58.018" viewBox="0 0 53.38 58.018">
  <g id="Group_201" data-name="Group 201" transform="translate(1)">
    <path id="FontAwsome_hands_" data-name="FontAwsome (hands)" d="M16.442,77.359a2.569,2.569,0,1,0-4.11,3.083L15.39,84.52a1.283,1.283,0,0,1-.12,1.678l-1.028,1.028a1.277,1.277,0,0,1-1.895-.088L5.138,78.483V66.569a2.569,2.569,0,1,0-5.138,0V84.1a3.858,3.858,0,0,0,.843,2.408L9.2,97.293a4.792,4.792,0,0,1,.835,1.742,1.258,1.258,0,0,0,1.228.931H21.837a1.288,1.288,0,0,0,1.285-1.285V89.69a10.292,10.292,0,0,0-2.055-6.166l-4.624-6.166ZM48.811,64a2.566,2.566,0,0,0-2.569,2.569V78.483l-7.209,8.654a1.289,1.289,0,0,1-1.895.088L36.111,86.2a1.283,1.283,0,0,1-.12-1.678l3.059-4.078a2.569,2.569,0,0,0-4.11-3.083l-4.624,6.166a10.292,10.292,0,0,0-2.055,6.166v8.992a1.288,1.288,0,0,0,1.285,1.285H40.117a1.265,1.265,0,0,0,1.228-.931,4.792,4.792,0,0,1,.835-1.742l8.357-10.782A3.858,3.858,0,0,0,51.38,84.1V66.569A2.566,2.566,0,0,0,48.811,64Z" transform="translate(0 -42.948)" fill="none" stroke="#8e8e8e" stroke-width="2"/>
    <path id="FontAwsome_home_" data-name="FontAwsome (home)" d="M15.064,39.221l-9.916,9.37V58.7a.93.93,0,0,0,.861.987l6.027-.018a.931.931,0,0,0,.856-.987V52.78a.93.93,0,0,1,.861-.987h3.442a.93.93,0,0,1,.861.987v5.9a1.066,1.066,0,0,0,.251.7.809.809,0,0,0,.609.29l6.025.019A.93.93,0,0,0,25.8,58.7V48.584l-9.914-9.363a.591.591,0,0,0-.823,0Zm15.663,6.369L17.113,32.726a2.331,2.331,0,0,0-3.281,0L.219,45.589a.817.817,0,0,0-.086,1.043L1.5,48.545a.626.626,0,0,0,.437.267.591.591,0,0,0,.473-.166l12.65-11.955a.591.591,0,0,1,.823,0L28.538,48.646a.59.59,0,0,0,.909-.1l1.371-1.913a.817.817,0,0,0,.144-.544.777.777,0,0,0-.235-.5Z" transform="translate(10.215 -32.051)" fill="#e0b154"/>
  </g>
</svg>
