<svg id="Group_239" data-name="Group 239" xmlns="http://www.w3.org/2000/svg" xmlns:xlink="http://www.w3.org/1999/xlink" width="218.214" height="72.808" viewBox="0 0 218.214 72.808">
  <defs>
    <clipPath id="clip-path">
      <path id="Path_114" data-name="Path 114" d="M165.928,346.974l-9.839-5.681-18.979-10.958c-1.054-.608-2.1-.24-2.1,1.032v44.647c0,.953.75,1.364,1.666.836l19.417-11.211,9.839-5.681,9.458-5.46c1.11-.641,1-1.521.067-2.025S165.928,346.974,165.928,346.974Z" transform="translate(-135.006 -330.048)" fill="none"/>
    </clipPath>
    <linearGradient id="linear-gradient" x1="0.5" x2="0.5" y2="1" gradientUnits="objectBoundingBox">
      <stop offset="0" stop-color="#006aa2"/>
      <stop offset="0.345" stop-color="#2f8da6"/>
      <stop offset="0.786" stop-color="#66b6ac"/>
      <stop offset="1" stop-color="#7cc6af"/>
    </linearGradient>
    <linearGradient id="linear-gradient-2" y1="0.5" x2="1" y2="0.5" gradientUnits="objectBoundingBox">
      <stop offset="0" stop-color="#4ab59d"/>
      <stop offset="1" stop-color="#dfe385"/>
    </linearGradient>
    <linearGradient id="linear-gradient-3" x1="0.5" x2="0.5" y2="1" gradientUnits="objectBoundingBox">
      <stop offset="0" stop-color="#e4282d"/>
      <stop offset="0.316" stop-color="#ba2d4e"/>
      <stop offset="0.777" stop-color="#83357b"/>
      <stop offset="1" stop-color="#6e388d"/>
    </linearGradient>
    <linearGradient id="linear-gradient-4" x1="0.5" x2="0.5" y2="1" gradientUnits="objectBoundingBox">
      <stop offset="0" stop-color="#f07165"/>
      <stop offset="0.659" stop-color="#faa460"/>
      <stop offset="1" stop-color="#ffba5e"/>
    </linearGradient>
  </defs>
  <path id="Path_109" data-name="Path 109" d="M314.855,359.042a9.744,9.744,0,0,1-9.644,9.84H106.288a9.746,9.746,0,0,1-9.647-9.84V305.914a9.745,9.745,0,0,1,9.647-9.84H305.211a9.744,9.744,0,0,1,9.644,9.84Z" transform="translate(-96.641 -296.074)" fill="#fff"/>
  <g id="PLAY" transform="translate(16.368 15.921)">
    <g id="Group_234" data-name="Group 234" clip-path="url(#clip-path)">
      <path id="Path_110" data-name="Path 110" d="M135.006,328.285v48.339l24.375-24.169Z" transform="translate(-135.006 -329.037)" fill="url(#linear-gradient)"/>
      <path id="Path_111" data-name="Path 111" d="M165.928,345.727l-9.839-5.681-21.083-12.173v.176l24.375,24.17Z" transform="translate(-135.006 -328.801)" fill="url(#linear-gradient-2)"/>
      <path id="Path_112" data-name="Path 112" d="M135.006,409.106v.176l21.083-12.173,9.839-5.68-6.547-6.491Z" transform="translate(-135.006 -361.52)" fill="url(#linear-gradient-3)"/>
      <path id="Path_113" data-name="Path 113" d="M198.687,369.721l-6.547,6.492,6.547,6.491,11.245-6.492Z" transform="translate(-167.765 -352.795)" fill="url(#linear-gradient-4)"/>
    </g>
  </g>
  <g id="Group_235" data-name="Group 235" transform="translate(163.284 31.435)">
    <path id="Path_115" data-name="Path 115" d="M485.909,387.5A6.078,6.078,0,0,1,483.4,387a4.725,4.725,0,0,1-1.905-1.558h-.154a18.914,18.914,0,0,1,.154,2.334v5.784h-2.128V373.189H481.1l.294,1.924h.1a4.948,4.948,0,0,1,1.912-1.667,5.805,5.805,0,0,1,2.5-.513,5.2,5.2,0,0,1,4.316,1.911,10.179,10.179,0,0,1-.024,10.743A5.209,5.209,0,0,1,485.909,387.5Zm-.308-12.762a3.773,3.773,0,0,0-3.116,1.193,6.142,6.142,0,0,0-.988,3.8v.475a7.032,7.032,0,0,0,.988,4.239,3.756,3.756,0,0,0,3.168,1.276,3.3,3.3,0,0,0,2.855-1.474,7,7,0,0,0,1.032-4.067,6.736,6.736,0,0,0-1.032-4.034A3.4,3.4,0,0,0,485.6,374.741Z" transform="translate(-479.368 -367.288)" fill="#1c1c1c"/>
    <path id="Path_116" data-name="Path 116" d="M517.073,379.661h-2.129V359.7h2.129Z" transform="translate(-499.766 -359.703)" fill="#1c1c1c"/>
    <path id="Path_117" data-name="Path 117" d="M535.594,387.28l-.424-2h-.1a5.9,5.9,0,0,1-2.1,1.789,6.37,6.37,0,0,1-2.61.468,4.7,4.7,0,0,1-3.277-1.077,3.928,3.928,0,0,1-1.187-3.065q0-4.258,6.811-4.464l2.387-.077v-.872a3.56,3.56,0,0,0-.712-2.443,2.926,2.926,0,0,0-2.277-.789,9.271,9.271,0,0,0-3.976,1.078l-.655-1.629a10.009,10.009,0,0,1,2.277-.885,9.857,9.857,0,0,1,2.482-.321,5.356,5.356,0,0,1,3.726,1.116,4.662,4.662,0,0,1,1.212,3.579v9.594Zm-4.81-1.5a4.325,4.325,0,0,0,3.123-1.09,4.037,4.037,0,0,0,1.135-3.053v-1.27l-2.13.089a7.747,7.747,0,0,0-3.662.79,2.378,2.378,0,0,0-1.122,2.174,2.19,2.19,0,0,0,.7,1.757A2.9,2.9,0,0,0,530.785,385.78Z" transform="translate(-506.046 -367.323)" fill="#1c1c1c"/>
    <path id="Path_118" data-name="Path 118" d="M555.222,373.533H557.5l3.079,8.017a30.6,30.6,0,0,1,1.258,3.964h.1q.166-.655.7-2.239t3.482-9.741h2.284l-6.042,16.008a7.984,7.984,0,0,1-2.1,3.368,4.46,4.46,0,0,1-2.943.993,8.615,8.615,0,0,1-1.924-.217v-1.706a7.434,7.434,0,0,0,1.578.154,3.252,3.252,0,0,0,3.13-2.463l.782-2Z" transform="translate(-522.86 -367.633)" fill="#1c1c1c"/>
  </g>
  <g id="Group_237" data-name="Group 237" transform="translate(66.22 29.889)">
    <path id="Path_119" data-name="Path 119" d="M387.51,375.172a4.956,4.956,0,0,1,2.087,3.97c0,2.174-1.235,3.206-2.47,4.174a2.069,2.069,0,0,0-.823,1.443,1.612,1.612,0,0,0,.765,1.264l1.059.822c1.294,1.088,2.468,2.089,2.468,4.118,0,2.764-2.676,5.556-7.732,5.556-4.264,0-6.321-2.028-6.321-4.206a4.231,4.231,0,0,1,2.264-3.587,12.676,12.676,0,0,1,5.616-1.353,3.076,3.076,0,0,1-.883-2,2.653,2.653,0,0,1,.294-1.149c-.325.03-.648.059-.942.059a4.649,4.649,0,0,1-4.88-4.615,5.29,5.29,0,0,1,1.881-3.94,8.018,8.018,0,0,1,5.265-1.618h6.056l-1.882,1.059Zm-2.088,13.056a4.576,4.576,0,0,0-.675-.031,11.767,11.767,0,0,0-3.088.473,3.3,3.3,0,0,0-2.529,3.028c0,2.087,2.03,3.588,5.176,3.588,2.821,0,4.322-1.355,4.322-3.177C388.628,390.607,387.658,389.816,385.422,388.228Zm.853-5.587a2.975,2.975,0,0,0,.733-2.147c0-2.116-1.264-5.409-3.7-5.409a2.746,2.746,0,0,0-2.059.971,3.4,3.4,0,0,0-.647,2.176c0,1.97,1.147,5.234,3.677,5.234A3.011,3.011,0,0,0,386.275,382.641Z" transform="translate(-323.348 -366.394)" fill="#1c1c1c"/>
    <path id="Path_120" data-name="Path 120" d="M349.235,387.2a6.928,6.928,0,0,1-7.162-6.929,7.274,7.274,0,0,1,7.6-7.132,6.863,6.863,0,0,1,7.015,6.928A7.173,7.173,0,0,1,349.235,387.2Zm3.669-2.378a5.311,5.311,0,0,0,.882-3.26c0-2.584-1.233-7.515-4.873-7.515a4.089,4.089,0,0,0-2.641,1,4.442,4.442,0,0,0-1.352,3.582c0,2.9,1.439,7.687,4.992,7.687A3.749,3.749,0,0,0,352.9,384.819Z" transform="translate(-303.584 -365.833)" fill="#1c1c1c"/>
    <path id="Path_121" data-name="Path 121" d="M311.939,387.2a6.928,6.928,0,0,1-7.163-6.929,7.275,7.275,0,0,1,7.6-7.132,6.863,6.863,0,0,1,7.015,6.928A7.173,7.173,0,0,1,311.939,387.2Zm3.67-2.378a5.318,5.318,0,0,0,.881-3.26c0-2.584-1.233-7.515-4.874-7.515a4.091,4.091,0,0,0-2.642,1,4.442,4.442,0,0,0-1.35,3.582c0,2.9,1.438,7.687,4.991,7.687A3.752,3.752,0,0,0,315.609,384.819Z" transform="translate(-282.199 -365.833)" fill="#1c1c1c"/>
    <path id="Path_122" data-name="Path 122" d="M272.191,377.806l-4.221.974a31.288,31.288,0,0,1-4.869.5c-8.147,0-11.245-5.992-11.245-10.685,0-5.725,4.4-11.036,11.924-11.036a16.989,16.989,0,0,1,4.515.619,11.506,11.506,0,0,1,3.9,1.83l-2.45,2.332-1.032.235.738-1.181a8.435,8.435,0,0,0-6.315-2.773c-4.664,0-8.176,3.543-8.176,8.708,0,5.547,4.015,10.771,10.447,10.771a8.789,8.789,0,0,0,3.749-.738v-4.751l-4.456.236,2.36-1.27h6.257l-.766.738a.689.689,0,0,0-.3.471c-.031.266-.058,1.123-.058,1.418Z" transform="translate(-251.856 -356.903)" fill="#1c1c1c"/>
    <path id="Path_123" data-name="Path 123" d="M415.69,376.072c-.974-.089-1.178-.265-1.178-1.417v-16.7c.006-.064.01-.129.016-.19.119-1.032.413-1.21,1.33-1.741h-4.222l-2.214,1.063h2.257v.013l0-.011v18.221c0,.589-.116.678-.8,1.563H416.1l1.092-.648C416.7,376.16,416.193,376.131,415.69,376.072Z" transform="translate(-342.199 -356.019)" fill="#1c1c1c"/>
    <path id="Path_124" data-name="Path 124" d="M437.888,386.17c-.321.176-.644.383-.965.528a6.824,6.824,0,0,1-2.846.557,6.264,6.264,0,0,1-3.9-1.144,7.586,7.586,0,0,1-2.988-6.185,6.643,6.643,0,0,1,6.712-6.77,5.7,5.7,0,0,1,3.021.821,4.853,4.853,0,0,1,2.049,2.9l-6.886,2.786-2.257.176c.732,3.722,3.252,5.89,6.038,5.89a7.574,7.574,0,0,0,3.576-1.024Zm-2.754-8.735c.555-.2.849-.381.849-.791a2.908,2.908,0,0,0-2.9-2.521c-1.174,0-3.37.909-3.37,4.074,0,.5.058,1.026.089,1.555Z" transform="translate(-352.387 -365.845)" fill="#1c1c1c"/>
    <g id="Group_236" data-name="Group 236" transform="translate(87.455 7.311)">
      <path id="Path_125" data-name="Path 125" d="M457.721,373.357v1.934h-.235v-1.934h-.64v-.2h1.514v.2Z" transform="translate(-456.846 -373.156)" fill="#1c1c1c"/>
      <path id="Path_126" data-name="Path 126" d="M462.91,375.29v-1.952H462.9l-.6,1.952h-.183l-.6-1.952h-.007v1.952H461.3v-2.134h.366l.544,1.725h.007l.535-1.725h.371v2.134Z" transform="translate(-459.399 -373.156)" fill="#1c1c1c"/>
    </g>
  </g>
  <g id="Group_238" data-name="Group 238" transform="translate(66.27 16.301)">
    <path id="Path_127" data-name="Path 127" d="M259.476,337.806h-1.893a12.552,12.552,0,0,0-.539-2.213h-2.733a11.437,11.437,0,0,0-.556,2.213h-1.781q0-.23,1.381-3.787a29.783,29.783,0,0,0,1.382-3.917h2.236a32.71,32.71,0,0,0,1.251,3.86A33.8,33.8,0,0,1,259.476,337.806Zm-2.734-3.343a33.505,33.505,0,0,1-1.012-3.3h-.095a34.618,34.618,0,0,1-1.047,3.3Z" transform="translate(-251.974 -329.925)" fill="#8e8e8e"/>
    <path id="Path_128" data-name="Path 128" d="M274.269,337.806h-1.462a14.414,14.414,0,0,0-1.627-2.562,14.115,14.115,0,0,1-1.94-3.343h-.095a20.852,20.852,0,0,1,.148,2.343q0,1.461.083,3.562H267.92q.089-1.834.089-4.029,0-2.16-.089-3.674h1.758a11.129,11.129,0,0,0,1.461,2.5,14.74,14.74,0,0,1,1.787,3.154h.089a22.471,22.471,0,0,1-.142-2.367q0-1.6-.083-3.289h1.479q-.083,1.467-.083,3.674Q274.186,336,274.269,337.806Z" transform="translate(-259.137 -329.925)" fill="#8e8e8e"/>
    <path id="Path_129" data-name="Path 129" d="M289.709,333.659a4.363,4.363,0,0,1-1.077,2.935,3.761,3.761,0,0,1-3.017,1.255q-.876,0-2.414-.071.077-1.787.077-4.03,0-2.153-.077-3.674h1.036q.254,0,.757-.018c.335-.012.554-.018.656-.018a3.989,3.989,0,0,1,3.1,1.065A3.682,3.682,0,0,1,289.709,333.659Zm-1.615.254a2.851,2.851,0,0,0-.663-1.914,2.512,2.512,0,0,0-2.024-.778,6.26,6.26,0,0,0-.7.053q.06,1.184.06,2.473,0,1.414.059,2.8a3.915,3.915,0,0,0,.769.077,2.235,2.235,0,0,0,1.884-.79A3.048,3.048,0,0,0,288.093,333.913Z" transform="translate(-266.001 -329.896)" fill="#8e8e8e"/>
    <path id="Path_130" data-name="Path 130" d="M304.287,337.777h-1.751a11.624,11.624,0,0,0-1.053-2.585,1.38,1.38,0,0,0-1.183-.491c-.229,0-.448,0-.657.006q0,1.521.053,3.071h-1.645q.077-1.787.077-4.03,0-2.153-.077-3.674h1.023q.178,0,.742-.018t1.044-.018q2.716,0,2.716,1.858a2.084,2.084,0,0,1-1.551,2.053v.089a1.848,1.848,0,0,1,1.048.931A20.583,20.583,0,0,1,304.287,337.777Zm-2.219-5.443q0-1.177-1.515-1.178a5.154,5.154,0,0,0-.983.083q.065.917.065,2.39.325.011.55.012Q302.068,333.641,302.068,332.334Z" transform="translate(-272.672 -329.896)" fill="#8e8e8e"/>
    <path id="Path_131" data-name="Path 131" d="M318.628,333.667a4.25,4.25,0,0,1-1.112,3.012,3.61,3.61,0,0,1-2.751,1.2,3.476,3.476,0,0,1-2.615-1.1,3.864,3.864,0,0,1-1.053-2.789,4.246,4.246,0,0,1,1.112-3.012,3.609,3.609,0,0,1,2.751-1.2,3.481,3.481,0,0,1,2.615,1.095A3.862,3.862,0,0,1,318.628,333.667Zm-1.633.171a3.054,3.054,0,0,0-.633-2.006,1.949,1.949,0,0,0-1.562-.769,1.8,1.8,0,0,0-1.467.776,3.092,3.092,0,0,0-.6,1.958,3.047,3.047,0,0,0,.636,2,1.949,1.949,0,0,0,1.559.772,1.8,1.8,0,0,0,1.467-.778A3.1,3.1,0,0,0,317,333.839Z" transform="translate(-278.533 -329.78)" fill="#8e8e8e"/>
    <path id="Path_132" data-name="Path 132" d="M329.479,337.806H327.8q.077-1.834.077-4.029,0-2.16-.077-3.674h1.674q-.077,1.49-.077,3.674Q329.4,336.008,329.479,337.806Z" transform="translate(-286.038 -329.925)" fill="#8e8e8e"/>
    <path id="Path_133" data-name="Path 133" d="M341.107,333.659a4.362,4.362,0,0,1-1.077,2.935,3.76,3.76,0,0,1-3.017,1.255q-.876,0-2.414-.071.077-1.787.077-4.03,0-2.153-.077-3.674h1.036q.254,0,.757-.018t.656-.018a3.988,3.988,0,0,1,3.1,1.065A3.684,3.684,0,0,1,341.107,333.659Zm-1.615.254A2.853,2.853,0,0,0,338.83,332a2.513,2.513,0,0,0-2.024-.778,6.252,6.252,0,0,0-.7.053q.06,1.184.06,2.473,0,1.414.059,2.8a3.915,3.915,0,0,0,.77.077,2.235,2.235,0,0,0,1.884-.79A3.048,3.048,0,0,0,339.492,333.913Z" transform="translate(-289.09 -329.896)" fill="#8e8e8e"/>
    <path id="Path_134" data-name="Path 134" d="M360.952,337.806h-1.893a12.481,12.481,0,0,0-.539-2.213h-2.734a11.416,11.416,0,0,0-.556,2.213H353.45q0-.23,1.381-3.787a29.718,29.718,0,0,0,1.381-3.917h2.236a32.648,32.648,0,0,0,1.252,3.86A33.955,33.955,0,0,1,360.952,337.806Zm-2.734-3.343a33.581,33.581,0,0,1-1.012-3.3h-.094a34.6,34.6,0,0,1-1.047,3.3Z" transform="translate(-297.558 -329.925)" fill="#8e8e8e"/>
    <path id="Path_135" data-name="Path 135" d="M375.017,332.091a2.307,2.307,0,0,1-1.051,2.089,4.672,4.672,0,0,1-2.576.674q-.278,0-.4-.012,0,1.112.065,2.935H369.4q.077-1.709.077-4.03,0-2.13-.077-3.674h1.03q.218,0,.84-.018t1.077-.018a3.386,3.386,0,0,1,1.9.509A1.721,1.721,0,0,1,375.017,332.091Zm-1.527.325q0-1.266-1.68-1.266a4.727,4.727,0,0,0-.887.089q.065,1.118.065,2.532.148.012.343.012Q373.491,333.783,373.491,332.416Z" transform="translate(-304.721 -329.896)" fill="#8e8e8e"/>
    <path id="Path_136" data-name="Path 136" d="M387.9,332.091a2.307,2.307,0,0,1-1.05,2.089,4.676,4.676,0,0,1-2.577.674c-.186,0-.317,0-.4-.012q0,1.112.065,2.935H382.28q.077-1.709.077-4.03,0-2.13-.077-3.674h1.03q.219,0,.84-.018t1.077-.018a3.386,3.386,0,0,1,1.9.509A1.721,1.721,0,0,1,387.9,332.091Zm-1.526.325q0-1.266-1.68-1.266a4.727,4.727,0,0,0-.887.089q.065,1.118.065,2.532c.1.008.213.012.343.012Q386.375,333.783,386.375,332.416Z" transform="translate(-310.509 -329.896)" fill="#8e8e8e"/>
    <path id="Path_137" data-name="Path 137" d="M407.407,333.667a4.248,4.248,0,0,1-1.113,3.012,3.609,3.609,0,0,1-2.751,1.2,3.477,3.477,0,0,1-2.615-1.1,3.866,3.866,0,0,1-1.053-2.789,4.249,4.249,0,0,1,1.112-3.012,3.611,3.611,0,0,1,2.752-1.2,3.482,3.482,0,0,1,2.615,1.095A3.864,3.864,0,0,1,407.407,333.667Zm-1.633.171a3.051,3.051,0,0,0-.633-2.006,1.948,1.948,0,0,0-1.561-.769,1.8,1.8,0,0,0-1.468.776,3.092,3.092,0,0,0-.6,1.958,3.047,3.047,0,0,0,.636,2,1.948,1.948,0,0,0,1.559.772,1.8,1.8,0,0,0,1.467-.778A3.092,3.092,0,0,0,405.774,333.839Z" transform="translate(-318.413 -329.78)" fill="#8e8e8e"/>
    <path id="Path_138" data-name="Path 138" d="M422.932,337.806h-1.461a14.413,14.413,0,0,0-1.627-2.562A14.122,14.122,0,0,1,417.9,331.9h-.094a20.97,20.97,0,0,1,.148,2.343q0,1.461.083,3.562h-1.456q.089-1.834.089-4.029,0-2.16-.089-3.674h1.757a11.152,11.152,0,0,0,1.462,2.5,14.736,14.736,0,0,1,1.787,3.154h.089a22.373,22.373,0,0,1-.142-2.367q0-1.6-.083-3.289h1.479q-.083,1.467-.083,3.674Q422.85,336,422.932,337.806Z" transform="translate(-325.919 -329.925)" fill="#8e8e8e"/>
  </g>
</svg>
