<svg xmlns="http://www.w3.org/2000/svg" width="54.832" height="58.018" viewBox="0 0 54.832 58.018">
  <g id="Group_343" data-name="Group 343" transform="translate(-755 -2274)">
    <path id="Path_5" data-name="Path 5" d="M-8.778,8.861c3.932,0,6.966.958,8.891,2.8S2.37,16.4,1.919,17.483-1.7,16.7-2.726,16.618l0-.107V14.785c.077-1.631-.308-2.8-1.981-3.086l-.24-.038h-6.561l-.21.03A3.114,3.114,0,0,0-14,12.7a3.227,3.227,0,0,0-.619,2.093v1.717a3.287,3.287,0,0,0,0,.382c-1.113.127-4.445,1.638-5.048.59s.927-4.321,1.824-5.389c1.649-1.975,5.6-3.233,9.063-3.233m-.9,14.739c1.679,0,8.617-.594,9.881,0a14.329,14.329,0,0,1-8.98,3.611c-4.537.088-7.378-2.049-9.169-3.26m2.155,19.511a12.114,12.114,0,0,0,1.812,3.147,8.374,8.374,0,0,0,6.01,2.414,7.449,7.449,0,0,0,5.24-2.414,8.143,8.143,0,0,0,1.463-2.437,38.8,38.8,0,0,0,3.778,1.313L.972,51.307h-17.8l-2.423-6.291c.755-.29,2.748-1.217,3.458-1.614m-10.783,3.206c.207.805.83,3.878.978,4.7a5.474,5.474,0,0,0-3.464,5.076v6.347h-4.864l1.621-5.589c1.032-7.381,4.159-9.341,5.728-10.531m38.045,1.013c1.383,1.412,2.672,5.566,3.552,10.2l1.386,4.908h-4.2V56.383a5.537,5.537,0,0,0-2.8-5.076c.089-.7.713-4.008.832-4.7M-9.035,6.7c-7.132,0-14.129,4.189-12.435,13.578v.03A62.9,62.9,0,0,1-7.97,18.8c.536-.018,1.069-.024,1.6-.024A54.981,54.981,0,0,1,3.9,19.747v-.059C6.283,11.433-1.453,6.7-9.035,6.7Zm-3.138,9.7a.335.335,0,0,1-.3-.385V14.062a.309.309,0,0,1,.3-.355H-4.95a.328.328,0,0,1,.3.355v1.954a.356.356,0,0,1-.3.385Zm5.847,4.5q-.822,0-1.643.027a60.977,60.977,0,0,0-13.116,1.451l.385,2.132a4.394,4.394,0,0,0-.3,2.4,9.485,9.485,0,0,0,.681,2.694c.444,1.036,1.066,1.747,1.806,1.747a5.848,5.848,0,0,1,.237.77,15.445,15.445,0,0,0,2.132,5.152,9.513,9.513,0,0,0,1.007,1.214l-.089,1.806c-.118.118-.207.237-.326.355A13.992,13.992,0,0,1-21.8,43.4l2.961,9.889H2.689l2.339-9.83A12.272,12.272,0,0,1,.113,42.248a7.091,7.091,0,0,1-1.658-1.865l-.089-1.658a8.838,8.838,0,0,0,1.362-1.6,13.39,13.39,0,0,0,1.658-4.352c.089-.385.178-.74.266-1.1.829-.089,1.569-1.214,2.013-2.576a11.544,11.544,0,0,0,.5-2.4,4.453,4.453,0,0,0-.237-2.072,1.06,1.06,0,0,0-.888-.681A8.665,8.665,0,0,1,3.37,21.79a53.941,53.941,0,0,0-9.7-.885ZM-8.778,29.28c5.4-.1,9.794-1.96,10.7-4.767.3.326.711.148.888.474a4,4,0,0,1,.148,1.569,10.5,10.5,0,0,1-.444,2.132C2.147,29.8,1.6,30.71,1.066,30.71A.513.513,0,0,1,.972,30.7a.415.415,0,0,0-.415.355C.409,31.59.291,32,.2,32.448c-1.43,5.089-4.829,7.535-8.3,7.535-3.716,0-7.517-2.8-9.078-8.157-.089-.355-.178-.681-.326-1.125v-.03a.33.33,0,0,0-.338-.281.331.331,0,0,0-.107.015.622.622,0,0,1-.127.015c-.429,0-.853-.533-1.175-1.288a9.483,9.483,0,0,1-.592-2.4,3.866,3.866,0,0,1,.178-1.836C-17.08,28.013-14.174,29.377-8.778,29.28Zm.6,17.329c-2.91,0-5.883-2.534-5.806-7.411a8.746,8.746,0,0,0,5.655,2.457c.071,0,.139,0,.21,0a7.625,7.625,0,0,0,5.386-2.253c.086,4.861-2.65,7.2-5.445,7.2Zm16.784-2.5a48.308,48.308,0,0,0-1.48,9.149H8.462a2.006,2.006,0,0,1,1.776,2.072v9.356l-.03.03h8.645l-1.776-8.142c-1.658-8.734-5-11.428-8.468-12.465Zm-33.841.03c-3.819,1.036-7.195,3.257-9.089,13l-1.658,7.579h9.089V55.364a1.967,1.967,0,0,1,1.776-2.073h1.895a38.339,38.339,0,0,0-2.013-9.119v-.03ZM6.523,56.383A1.4,1.4,0,0,0,6.3,56.4a1.344,1.344,0,0,0-1.214,1.421.577.577,0,0,0,.03.237,1.4,1.4,0,0,0,1.392,1.208,1.68,1.68,0,0,0,.266-.024,1.44,1.44,0,0,0-.252-2.86Zm-29.474.018a1.445,1.445,0,0,0-1.214,1.214,1.478,1.478,0,0,0,1.214,1.658,1.445,1.445,0,0,0,1.184-1.214A1.425,1.425,0,0,0-22.951,56.4Z" transform="translate(790.978 2267.298)" fill="#8e8e8e"/>
    <path id="Path_5-2" data-name="Path 5" d="M-8.778,8.861c3.932,0,6.966.958,8.891,2.8s1.806,5.822,1.806,5.822S-1.7,16.7-2.726,16.618l0-.107V14.785c.077-1.631-.308-2.8-1.981-3.086l-.24-.038h-6.561l-.21.03A3.114,3.114,0,0,0-14,12.7a3.227,3.227,0,0,0-.619,2.093v1.717a3.287,3.287,0,0,0,0,.382c-1.113.127-5.048.59-5.048.59s.927-4.321,1.824-5.389c1.649-1.975,5.6-3.233,9.063-3.233M-9.035,6.7c-7.132,0-14.129,4.189-12.435,13.578v.03A62.9,62.9,0,0,1-7.97,18.8c.536-.018,1.069-.024,1.6-.024A54.981,54.981,0,0,1,3.9,19.747v-.059C6.283,11.433-1.453,6.7-9.035,6.7Zm-3.138,9.7a.335.335,0,0,1-.3-.385V14.062a.309.309,0,0,1,.3-.355H-4.95a.328.328,0,0,1,.3.355v1.954a.356.356,0,0,1-.3.385Z" transform="translate(790.978 2267.298)" fill="#e0b154"/>
  </g>
</svg>
