<svg xmlns="http://www.w3.org/2000/svg" width="54.07" height="60.275" viewBox="0 0 54.07 60.275">
  <g id="Group_248" data-name="Group 248" transform="translate(-821.999 -2306.965)">
    <g id="Group_204" data-name="Group 204" transform="translate(823 2308)">
      <g id="Group_202" data-name="Group 202" transform="translate(11.5 14.779)">
        <path id="Path_8" data-name="Path 8" d="M78.5,7.781c.192,0,.192,0,.383-.192L80.99,7.4c.192,0,.192,0,.383-.192.192-.575.575-1.341.766-1.915a.188.188,0,0,1,.192-.192l.192.192c.192.575.575,1.341.766,1.915,0,.192.192.192.383.192.766,0,1.341.192,2.107.192.192,0,.192,0,.383.192a.593.593,0,0,1-.192.383c-.575.383-.958.958-1.532,1.341-.192,0-.192.192-.192.383A8.145,8.145,0,0,1,84.629,12v.383h-.383a7.764,7.764,0,0,0-1.724-.958.359.359,0,0,0-.575,0,7.764,7.764,0,0,1-1.724.958h-.383V12a6.8,6.8,0,0,0,.383-1.915c0-.192,0-.383-.192-.383A13.419,13.419,0,0,0,78.5,7.781Z" transform="translate(-78.5 -5.1)" fill="#e0b154"/>
        <path id="Path_9" data-name="Path 9" d="M85.7,7.781c.192,0,.192,0,.383-.192.766,0,1.341-.192,2.107-.192.192,0,.192,0,.383-.192.192-.575.575-1.341.766-1.915a.188.188,0,0,1,.192-.192l.192.192c.192.575.575,1.341.766,1.915,0,.192.192.192.383.192.766,0,1.341.192,2.107.192.192,0,.192,0,.383.192a.593.593,0,0,1-.192.383c-.575.383-.958.958-1.532,1.341-.192,0-.192.192-.192.383A8.145,8.145,0,0,1,91.829,12v.383h-.383a7.764,7.764,0,0,0-1.724-.958.359.359,0,0,0-.575,0,7.763,7.763,0,0,1-1.724.958h-.383V12a6.8,6.8,0,0,0,.383-1.915c0-.192,0-.383-.192-.383L85.7,7.781Z" transform="translate(-74.599 -5.1)" fill="#e0b154"/>
        <path id="Path_10" data-name="Path 10" d="M93,7.781c.192,0,.192,0,.383-.192.766,0,1.341-.192,2.107-.192.192,0,.192,0,.383-.192.192-.575.575-1.341.766-1.915a.188.188,0,0,1,.192-.192l.192.192c.192.575.575,1.341.766,1.915,0,.192.192.192.383.192.766,0,1.341.192,2.107.192.192,0,.192,0,.383.192a.593.593,0,0,1-.192.383c-.575.383-.958.958-1.532,1.341-.192,0-.192.192-.192.383A8.145,8.145,0,0,0,99.129,12v.383h-.383a7.763,7.763,0,0,0-1.724-.958.359.359,0,0,0-.575,0l-1.724.958h-.383V12a6.8,6.8,0,0,0,.383-1.915c0-.192,0-.383-.192-.383L93,7.781Z" transform="translate(-70.643 -5.1)" fill="#e0b154"/>
      </g>
      <path id="Path_11" data-name="Path 11" d="M74.155,8.453l22.259-10.6a6.071,6.071,0,0,1,5.148-.035l20.352,9.353a4.608,4.608,0,0,1,2.658,4.013c1.217,30-25.631,43.1-25.631,43.1C84.593,44.489,72.049,28.317,72.559,10.84A2.762,2.762,0,0,1,74.155,8.453Z" transform="translate(-72.544 2.737)" fill="none" stroke="#8e8e8e" stroke-miterlimit="10" stroke-width="2"/>
    </g>
    <path id="FontAwsome_wrench_" data-name="FontAwsome (wrench)" d="M23.8,5.114a.562.562,0,0,0-.943-.258L19.371,8.341l-3.182-.53-.53-3.182,3.486-3.486A.564.564,0,0,0,18.879.2a6.717,6.717,0,0,0-8,8.678l-10,10a3,3,0,0,0,4.242,4.242l9.994-9.994A6.728,6.728,0,0,0,23.8,5.114Z" transform="translate(832.5 2349.048) rotate(-45)" fill="none" stroke="#8e8e8e" stroke-width="1.5"/>
  </g>
</svg>
