<svg xmlns="http://www.w3.org/2000/svg" width="58.091" height="57.844" viewBox="0 0 58.091 57.844">
  <g id="Group_203" data-name="Group 203" transform="translate(1 1)">
    <path id="Path_12" data-name="Path 12" d="M-6.188,51.07C-8.591,38.2-19.062,40.6-19.062,40.6c-12.874-1.2-12.874,11.672-12.874,11.672-5.836,3.433,0,9.269,0,9.269,0,12.874,12.874,12.874,12.874,12.874s11.672,1.2,12.874-13.9a4.5,4.5,0,0,0,2.4-3.433,5.247,5.247,0,0,0-1.2-3.433l-1.2-1.03Z" transform="translate(46.87 -33.676)" fill="none" stroke="#8e8e8e" stroke-miterlimit="10" stroke-width="2"/>
    <line id="Line_14" data-name="Line 14" x1="1.03" y2="3.261" transform="translate(19.74 38.679)" fill="none" stroke="#8e8e8e" stroke-miterlimit="10" stroke-width="2"/>
    <path id="Path_13" data-name="Path 13" d="M-21.979,60.925s-19.74,2.4-19.74,13.9H14.24s2.4-10.471-19.74-13.9c0,0-1.2,7.038-8.068,5.836C-13.911,66.59-21.979,67.791-21.979,60.925Z" transform="translate(41.719 -18.984)" fill="none" stroke="#8e8e8e" stroke-miterlimit="10" stroke-width="2"/>
    <path id="Path_14" data-name="Path 14" d="M-32.219,54.325" transform="translate(48.526 -23.713)" fill="none" stroke="#8e8e8e" stroke-width="2"/>
    <path id="Path_15" data-name="Path 15" d="M-31.9,66.777l-2.736-1.6s-5.628-6.54,1-14.037c0,0,0-11.963,12.1-12.92h6.63s10.94,1.117,10.94,12.92c0,0,4.465,4.409,2.867,9.246s-9.261,10.1-9.261,10.1" transform="translate(46.834 -38.225)" fill="none" stroke="#e0b154" stroke-miterlimit="10" stroke-width="2"/>
    <path id="Path_16" data-name="Path 16" d="M-33.019,50.693s13.9,3.433,22.143-8.068" transform="translate(47.953 -32.097)" fill="none" stroke="#8e8e8e" stroke-miterlimit="10" stroke-width="2"/>
    <path id="Path_17" data-name="Path 17" d="M-14.15,48.4s-7.9.515-9.269-2.575" transform="translate(54.832 -29.804)" fill="none" stroke="#8e8e8e" stroke-miterlimit="10" stroke-width="2"/>
    <ellipse id="Ellipse_14" data-name="Ellipse 14" cx="2.581" cy="2.581" rx="2.581" ry="2.581" transform="translate(31.413 29.994)" fill="none" stroke="#e0b154" stroke-miterlimit="10" stroke-width="2"/>
    <line id="Line_15" data-name="Line 15" x1="1.03" y1="3.261" transform="translate(34.846 38.679)" fill="none" stroke="#8e8e8e" stroke-miterlimit="10" stroke-width="2"/>
    <path id="Path_18" data-name="Path 18" d="M-27.119,60.225" transform="translate(52.18 -19.486)" fill="#e2e2e2" stroke="#8e8e8e" stroke-width="2"/>
  </g>
</svg>
